<?xml version="1.0" encoding="UTF-8"?>
<!-- Generator: visioncortex VTracer 0.6.3 -->
<svg version="1.1" xmlns="http://www.w3.org/2000/svg" width="600" height="600">
<path d="M0 0 C198 0 396 0 600 0 C600 198 600 396 600 600 C402 600 204 600 0 600 C0 402 0 204 0 0 Z " fill="#D4D7AC" transform="translate(0,0)"/>
<path d="M0 0 C198 0 396 0 600 0 C600 39.6 600 79.2 600 120 C402 120 204 120 0 120 C0 80.4 0 40.8 0 0 Z " fill="#FAC7AA" transform="translate(0,0)"/>
<path d="M0 0 C198 0 396 0 600 0 C600 22.44 600 44.88 600 68 C402 68 204 68 0 68 C0 45.56 0 23.12 0 0 Z " fill="#F8EFE3" transform="translate(0,532)"/>
<path d="M0 0 C198 0 396 0 600 0 C600 17.16 600 34.32 600 52 C402 52 204 52 0 52 C0 34.84 0 17.68 0 0 Z " fill="#ED593D" transform="translate(0,480)"/>
<path d="M0 0 C198 0 396 0 600 0 C600 17.16 600 34.32 600 52 C402 52 204 52 0 52 C0 34.84 0 17.68 0 0 Z " fill="#FCC130" transform="translate(0,360)"/>
<path d="M0 0 C158.4 0 316.8 0 480 0 C480 17.16 480 34.32 480 52 C321.6 52 163.2 52 0 52 C0 34.84 0 17.68 0 0 Z " fill="#476C6E" transform="translate(120,120)"/>
<path d="M0 0 C118.8 0 237.6 0 360 0 C360 17.16 360 34.32 360 52 C241.2 52 122.4 52 0 52 C0 34.84 0 17.68 0 0 Z " fill="#D4747E" transform="translate(0,540)"/>
<path d="M0 0 C118.8 0 237.6 0 360 0 C360 17.16 360 34.32 360 52 C241.2 52 122.4 52 0 52 C0 34.84 0 17.68 0 0 Z " fill="#00303F" transform="translate(240,300)"/>
<path d="M0 0 C198 0 396 0 600 0 C600 22.44 600 44.88 600 68 C402 68 204 68 0 68 C0 65.69 0 63.38 0 61 C158.4 61 316.8 61 480 61 C480 43.51 480 26.02 480 8 C321.6 8 163.2 8 0 8 C0 5.36 0 2.72 0 0 Z " fill="#EDF9D7" transform="translate(0,412)"/>
<path d="M0 0 C79.2 0 158.4 0 240 0 C240 17.16 240 34.32 240 52 C160.8 52 81.6 52 0 52 C0 34.84 0 17.68 0 0 Z " fill="#604036" transform="translate(0,480)"/>
<path d="M0 0 C79.2 0 158.4 0 240 0 C240 17.16 240 34.32 240 52 C160.8 52 81.6 52 0 52 C0 34.84 0 17.68 0 0 Z " fill="#486E74" transform="translate(0,420)"/>
<path d="M0 0 C79.2 0 158.4 0 240 0 C240 17.16 240 34.32 240 52 C160.8 52 81.6 52 0 52 C0 34.84 0 17.68 0 0 Z " fill="#B90045" transform="translate(0,360)"/>
<path d="M0 0 C79.2 0 158.4 0 240 0 C240 17.16 240 34.32 240 52 C160.8 52 81.6 52 0 52 C0 34.84 0 17.68 0 0 Z " fill="#DF8170" transform="translate(0,240)"/>
<path d="M0 0 C79.2 0 158.4 0 240 0 C240 17.16 240 34.32 240 52 C160.8 52 81.6 52 0 52 C0 34.84 0 17.68 0 0 Z " fill="#C0404E" transform="translate(360,180)"/>
<path d="M0 0 C79.2 0 158.4 0 240 0 C240 17.16 240 34.32 240 52 C160.8 52 81.6 52 0 52 C0 34.84 0 17.68 0 0 Z " fill="#39C8BD" transform="translate(0,180)"/>
<path d="M0 0 C79.2 0 158.4 0 240 0 C240 17.16 240 34.32 240 52 C160.8 52 81.6 52 0 52 C0 34.84 0 17.68 0 0 Z " fill="#BC1D3A" transform="translate(120,120)"/>
<path d="M0 0 C79.2 0 158.4 0 240 0 C240 17.16 240 34.32 240 52 C160.8 52 81.6 52 0 52 C0 34.84 0 17.68 0 0 Z " fill="#76A692" transform="translate(360,60)"/>
<path d="M0 0 C79.2 0 158.4 0 240 0 C240 17.16 240 34.32 240 52 C160.8 52 81.6 52 0 52 C0 34.84 0 17.68 0 0 Z " fill="#FF9090" transform="translate(0,60)"/>
<path d="M0 0 C79.2 0 158.4 0 240 0 C240 17.16 240 34.32 240 52 C160.8 52 81.6 52 0 52 C0 34.84 0 17.68 0 0 Z " fill="#FF591B" transform="translate(360,0)"/>
<path d="M0 0 C79.2 0 158.4 0 240 0 C240 17.16 240 34.32 240 52 C160.8 52 81.6 52 0 52 C0 34.84 0 17.68 0 0 Z " fill="#9AD7D3" transform="translate(0,0)"/>
<path d="M0 0 C39.6 0 79.2 0 120 0 C120 17.16 120 34.32 120 52 C80.4 52 40.8 52 0 52 C0 34.84 0 17.68 0 0 Z " fill="#BDE2D4" transform="translate(360,540)"/>
<path d="M0 0 C39.6 0 79.2 0 120 0 C120 17.16 120 34.32 120 52 C80.4 52 40.8 52 0 52 C0 34.84 0 17.68 0 0 Z " fill="#C09990" transform="translate(240,540)"/>
<path d="M0 0 C39.6 0 79.2 0 120 0 C120 17.16 120 34.32 120 52 C80.4 52 40.8 52 0 52 C0 34.84 0 17.68 0 0 Z " fill="#EA3F6A" transform="translate(0,540)"/>
<path d="M0 0 C39.6 0 79.2 0 120 0 C120 17.16 120 34.32 120 52 C80.4 52 40.8 52 0 52 C0 34.84 0 17.68 0 0 Z " fill="#EFC055" transform="translate(480,480)"/>
<path d="M0 0 C39.6 0 79.2 0 120 0 C120 17.16 120 34.32 120 52 C80.4 52 40.8 52 0 52 C0 34.84 0 17.68 0 0 Z " fill="#CA2638" transform="translate(240,480)"/>
<path d="M0 0 C39.6 0 79.2 0 120 0 C120 17.16 120 34.32 120 52 C80.4 52 40.8 52 0 52 C0 34.84 0 17.68 0 0 Z " fill="#0097A5" transform="translate(0,480)"/>
<path d="M0 0 C39.6 0 79.2 0 120 0 C120 17.16 120 34.32 120 52 C80.4 52 40.8 52 0 52 C0 34.84 0 17.68 0 0 Z " fill="#33A59E" transform="translate(240,420)"/>
<path d="M0 0 C39.6 0 79.2 0 120 0 C120 17.16 120 34.32 120 52 C80.4 52 40.8 52 0 52 C0 34.84 0 17.68 0 0 Z " fill="#4F4546" transform="translate(0,420)"/>
<path d="M0 0 C39.6 0 79.2 0 120 0 C120 17.16 120 34.32 120 52 C80.4 52 40.8 52 0 52 C0 34.84 0 17.68 0 0 Z " fill="#819027" transform="translate(480,360)"/>
<path d="M0 0 C39.6 0 79.2 0 120 0 C120 17.16 120 34.32 120 52 C80.4 52 40.8 52 0 52 C0 34.84 0 17.68 0 0 Z " fill="#EB701F" transform="translate(240,360)"/>
<path d="M0 0 C39.6 0 79.2 0 120 0 C120 17.16 120 34.32 120 52 C80.4 52 40.8 52 0 52 C0 34.84 0 17.68 0 0 Z " fill="#410B34" transform="translate(0,360)"/>
<path d="M0 0 C39.6 0 79.2 0 120 0 C120 17.16 120 34.32 120 52 C80.4 52 40.8 52 0 52 C0 34.84 0 17.68 0 0 Z " fill="#00162D" transform="translate(480,300)"/>
<path d="M0 0 C39.6 0 79.2 0 120 0 C120 17.16 120 34.32 120 52 C80.4 52 40.8 52 0 52 C0 34.84 0 17.68 0 0 Z " fill="#005B59" transform="translate(240,300)"/>
<path d="M0 0 C39.6 0 79.2 0 120 0 C120 17.16 120 34.32 120 52 C80.4 52 40.8 52 0 52 C0 34.84 0 17.68 0 0 Z " fill="#C9A979" transform="translate(120,300)"/>
<path d="M0 0 C39.6 0 79.2 0 120 0 C120 17.16 120 34.32 120 52 C80.4 52 40.8 52 0 52 C0 34.84 0 17.68 0 0 Z " fill="#BCDCD7" transform="translate(480,240)"/>
<path d="M0 0 C39.6 0 79.2 0 120 0 C120 17.16 120 34.32 120 52 C80.4 52 40.8 52 0 52 C0 34.84 0 17.68 0 0 Z " fill="#F1CDA9" transform="translate(240,240)"/>
<path d="M0 0 C39.6 0 79.2 0 120 0 C120 17.16 120 34.32 120 52 C80.4 52 40.8 52 0 52 C0 34.84 0 17.68 0 0 Z " fill="#6E4533" transform="translate(0,240)"/>
<path d="M0 0 C39.6 0 79.2 0 120 0 C120 17.16 120 34.32 120 52 C80.4 52 40.8 52 0 52 C0 34.84 0 17.68 0 0 Z " fill="#FF5B61" transform="translate(360,180)"/>
<path d="M0 0 C39.6 0 79.2 0 120 0 C120 17.16 120 34.32 120 52 C80.4 52 40.8 52 0 52 C0 34.84 0 17.68 0 0 Z " fill="#C2F269" transform="translate(240,180)"/>
<path d="M0 0 C39.6 0 79.2 0 120 0 C120 17.16 120 34.32 120 52 C80.4 52 40.8 52 0 52 C0 34.84 0 17.68 0 0 Z " fill="#4A5864" transform="translate(0,180)"/>
<path d="M0 0 C39.6 0 79.2 0 120 0 C120 17.16 120 34.32 120 52 C80.4 52 40.8 52 0 52 C0 34.84 0 17.68 0 0 Z " fill="#4B2030" transform="translate(360,120)"/>
<path d="M0 0 C39.6 0 79.2 0 120 0 C120 17.16 120 34.32 120 52 C80.4 52 40.8 52 0 52 C0 34.84 0 17.68 0 0 Z " fill="#D84C3D" transform="translate(120,120)"/>
<path d="M0 0 C39.6 0 79.2 0 120 0 C120 17.16 120 34.32 120 52 C80.4 52 40.8 52 0 52 C0 34.84 0 17.68 0 0 Z " fill="#C2C0A1" transform="translate(360,60)"/>
<path d="M0 0 C39.6 0 79.2 0 120 0 C120 17.16 120 34.32 120 52 C80.4 52 40.8 52 0 52 C0 34.84 0 17.68 0 0 Z " fill="#FF325A" transform="translate(0,60)"/>
<path d="M0 0 C39.6 0 79.2 0 120 0 C120 17.16 120 34.32 120 52 C80.4 52 40.8 52 0 52 C0 34.84 0 17.68 0 0 Z " fill="#F77734" transform="translate(360,0)"/>
<path d="M0 0 C39.6 0 79.2 0 120 0 C120 17.16 120 34.32 120 52 C80.4 52 40.8 52 0 52 C0 34.84 0 17.68 0 0 Z " fill="#DCE0C7" transform="translate(240,0)"/>
<path d="M0 0 C39.6 0 79.2 0 120 0 C120 17.16 120 34.32 120 52 C80.4 52 40.8 52 0 52 C0 34.84 0 17.68 0 0 Z " fill="#53CDE2" transform="translate(0,0)"/>
<path d="M0 0 C198 0 396 0 600 0 C600 2.64 600 5.28 600 8 C402 8 204 8 0 8 C0 5.36 0 2.72 0 0 Z " fill="#FAF8F7" transform="translate(0,532)"/>
<path d="M0 0 C198 0 396 0 600 0 C600 2.64 600 5.28 600 8 C402 8 204 8 0 8 C0 5.36 0 2.72 0 0 Z " fill="#F7F8F8" transform="translate(0,352)"/>
<path d="M0 0 C198 0 396 0 600 0 C600 2.64 600 5.28 600 8 C402 8 204 8 0 8 C0 5.36 0 2.72 0 0 Z " fill="#FAFAF9" transform="translate(0,232)"/>
<path d="M0 0 C198 0 396 0 600 0 C600 2.64 600 5.28 600 8 C402 8 204 8 0 8 C0 5.36 0 2.72 0 0 Z " fill="#FCFBFA" transform="translate(0,52)"/>
<path d="M0 0 C0 2.64 0 5.28 0 8 C-198 8 -396 8 -600 8 C-600 5.69 -600 3.38 -600 1 C-555.93 0.9 -511.86 0.81 -467.8 0.71 C-467.14 0.71 -466.48 0.71 -465.8 0.71 C-451.42 0.68 -437.05 0.65 -422.68 0.62 C-415.62 0.6 -408.57 0.59 -401.51 0.57 C-400.46 0.57 -400.46 0.57 -399.39 0.57 C-376.94 0.52 -354.5 0.47 -332.06 0.42 C-308.85 0.37 -285.64 0.32 -262.44 0.27 C-248.82 0.24 -235.2 0.22 -221.58 0.19 C-147.72 0.02 -73.86 -0.03 0 0 Z " fill="#FEFEFE" transform="translate(600,472)"/>
<path d="M0 0 C198 0 396 0 600 0 C600 2.31 600 4.62 600 7 C402 7 204 7 0 7 C0 4.69 0 2.38 0 0 Z " fill="#FFFFFF" transform="translate(0,293)"/>
<path d="M0 0 C198 0 396 0 600 0 C600 2.31 600 4.62 600 7 C402 7 204 7 0 7 C0 4.69 0 2.38 0 0 Z " fill="#FFFFFF" transform="translate(0,173)"/>
<path d="M0 0 C198 0 396 0 600 0 C600 2.31 600 4.62 600 7 C402 7 204 7 0 7 C0 4.69 0 2.38 0 0 Z " fill="#FFFFFF" transform="translate(0,113)"/>
</svg>
