

<svg xmlns="http://www.w3.org/2000/svg" width="240" height="210" stroke="#000" stroke-linecap="round" stroke-linejoin="round" fill="#fff" fill-rule="evenodd"><path d="M38 24.5l-16 18" fill="none" stroke="red" stroke-opacity=".5" stroke-width="2"/><g stroke="none"><path d="M41 24h18v18H41z" fill="#000"/><path d="M61 24h18v18H61z" fill="#262626"/><path d="M81 24h18v18H81z" fill="#4f4f4f"/><path d="M101 24h18v18h-18z" fill="#646464"/><path d="M121 24h18v18h-18z" fill="#838383"/><path d="M141 24h18v18h-18z" fill="#a2a2a2"/><path d="M161 24h18v18h-18z" fill="#c1c1c1"/><path d="M181 24h18v18h-18z" fill="#e0e0e0"/><path d="M201 24h18v18h-18z"/><path d="M21 46h18v18H21z" fill="#f66"/><path d="M61 46h18v18H61z" fill="#ff6"/><path d="M81 46h18v18H81z" fill="#6f6"/><path d="M101 46h18v18h-18z" fill="#66ffe5"/><path d="M41 46h18v18H41z" fill="#ffb466"/><path d="M121 46h18v18h-18z" fill="#66b1ff"/><path d="M141 46h18v18h-18z" fill="#b166ff"/><path d="M161 46h18v18h-18z" fill="#f6f"/><path d="M181 46h18v18h-18z" fill="#d87b66"/><path d="M201 46h18v18h-18z" fill="#c6c487"/><path d="M21 68h18v18H21z" fill="#4b0099"/><path d="M61 68h18v18H61z" fill="#8d55f9"/><path d="M81 68h18v18H81z" fill="#cb99ff"/><path d="M101 68h18v18h-18z" fill="#e5ccff"/><path d="M41 68h18v18H41z" fill="#6400cc"/><path d="M121 68h18v18h-18z" fill="#455a64"/><path d="M141 68h18v18h-18z" fill="#546e7a"/><path d="M161 68h18v18h-18z" fill="#78909c"/><path d="M181 68h18v18h-18z" fill="#b0bec5"/><path d="M201 68h18v18h-18z" fill="#cfd8dc"/><path d="M21 88h18v18H21z" fill="#909"/><path d="M61 88h18v18H61z" fill="#f0f"/><path d="M81 88h18v18H81z" fill="#f9f"/><path d="M101 88h18v18h-18z" fill="#fcf"/><path d="M41 88h18v18H41z" fill="#c0c"/><path d="M121 88h18v18h-18z" fill="#004b99"/><path d="M141 88h18v18h-18z" fill="#0064cc"/><path d="M161 88h18v18h-18z" fill="#007dff"/><path d="M181 88h18v18h-18z" fill="#99cbff"/><path d="M201 88h18v18h-18z" fill="#cce5ff"/><path d="M21 108h18v18H21z" fill="#a61c00"/><path d="M61 108h18v18H61z" fill="red"/><path d="M81 108h18v18H81z" fill="#f99"/><path d="M101 108h18v18h-18z" fill="#fcc"/><path d="M41 108h18v18H41z" fill="#c00"/><path d="M121 108h18v18h-18z" fill="#038491"/><path d="M141 108h18v18h-18z" fill="#06a5bf"/><path d="M161 108h18v18h-18z" fill="#00c9ff"/><path d="M181 108h18v18h-18z" fill="#8becfc"/><path d="M201 108h18v18h-18z" fill="#d2f7f9"/><path d="M101 148h18v18h-18z" fill="#f9d8d2"/><path d="M101 168h18v18h-18z" fill="#eae4c5"/><path d="M21 148h18v18H21z" fill="#914c3a"/><path d="M21 168h18v18H21z" fill="#695d46"/><path d="M61 168h18v18H61z" fill="#958976"/><path d="M61 148h18v18H61z" fill="#d36c40"/><path d="M81 168h18v18H81z" fill="#d3ceaa"/><path d="M81 148h18v18H81z" fill="#efaa97"/><path d="M121 168h18v18h-18z" fill="#d1be0d"/><path d="M121 148h18v18h-18z" fill="#4e9900"/><path d="M141 148h18v18h-18z" fill="#68cc00"/><path d="M141 168h18v18h-18z" fill="#f7e60d"/><path d="M181 168h18v18h-18z" fill="#fcf67e"/><path d="M181 148h18v18h-18z" fill="#9f9"/><path d="M201 168h18v18h-18z" fill="#ff9"/><path d="M201 148h18v18h-18z" fill="#cfc"/><path d="M161 168h18v18h-18z" fill="#ff0"/><path d="M161 148h18v18h-18z" fill="#aefc3f"/><path d="M41 168h18v18H41z" fill="#7c7162"/><path d="M41 148h18v18H41z" fill="#bf7045"/><path d="M101 128h18v18h-18z" fill="#ffe6cc"/><path d="M21 128h18v18H21z" fill="#ad6f00"/><path d="M61 128h18v18H61z" fill="#ffbc00"/><path d="M81 128h18v18H81z" fill="#ffcd99"/><path d="M121 128h18v18h-18z" fill="#009986"/><path d="M141 128h18v18h-18z" fill="#00ccb8"/><path d="M181 128h18v18h-18z" fill="#9ff"/><path d="M201 128h18v18h-18z" fill="#cffffd"/><path d="M161 128h18v18h-18z" fill="#3bf2ed"/><path d="M41 128h18v18H41z" fill="#db9200"/></g><rect x="10.5" y="10.5" width="220" height="190" rx="3" fill="none" stroke="silver"/></svg>